<svg xmlns="http://www.w3.org/2000/svg" width="640" height="360" viewBox="0 0 640 360">
  <defs>
    <linearGradient id="g" x1="0" x2="1">
      <stop offset="0" stop-color="#b6ecf1"/>
      <stop offset="1" stop-color="#7fe6cf"/>
    </linearGradient>
  </defs>
  <rect width="100%" height="100%" fill="url(#g)" rx="12"/>
  <g fill="#063247" transform="translate(80,60)">
    <path d="M120 0c-10 0-18 8-18 18v36c0 10-8 18-18 18h-8c-10 0-18 8-18 18v14c0 10-8 18-18 18H0v44h280V72c0-20-16-36-36-36H120z" opacity="0.14"/>
    <path d="M28 182c6-30 24-44 46-54 20-9 36-22 36-46 0-20-10-38-34-38-24 0-42 22-46 46" stroke="#063247" stroke-width="8" fill="none" stroke-linecap="round"/>
  </g>
  <text x="40" y="300" font-family="Poppins, Arial, sans-serif" font-size="20" fill="#063247">Cómo lavarse las manos</text>
</svg>